<?xml version="1.0" encoding="UTF-8" standalone="no"?>
<svg
   xmlns:dc="http://purl.org/dc/elements/1.1/"
   xmlns:cc="http://creativecommons.org/ns#"
   xmlns:rdf="http://www.w3.org/1999/02/22-rdf-syntax-ns#"
   xmlns:svg="http://www.w3.org/2000/svg"
   xmlns="http://www.w3.org/2000/svg"
   xmlns:sodipodi="http://sodipodi.sourceforge.net/DTD/sodipodi-0.dtd"
   xmlns:inkscape="http://www.inkscape.org/namespaces/inkscape"
   width="210mm"
   height="297mm"
   viewBox="0 0 210 297"
   version="1.1"
   id="svg8"
   inkscape:version="1.0.2 (e86c870879, 2021-01-15)"
   sodipodi:docname="oddbean.svg">
  <defs
     id="defs2" />
  <sodipodi:namedview
     id="base"
     pagecolor="#ffffff"
     bordercolor="#666666"
     borderopacity="1.0"
     inkscape:pageopacity="0.0"
     inkscape:pageshadow="2"
     inkscape:zoom="0.49497475"
     inkscape:cx="-192.29871"
     inkscape:cy="845.12978"
     inkscape:document-units="mm"
     inkscape:current-layer="layer1"
     inkscape:document-rotation="0"
     showgrid="false"
     inkscape:window-width="1920"
     inkscape:window-height="1025"
     inkscape:window-x="0"
     inkscape:window-y="55"
     inkscape:window-maximized="0" />
  <metadata
     id="metadata5">
    <rdf:RDF>
      <cc:Work
         rdf:about="">
        <dc:format>image/svg+xml</dc:format>
        <dc:type
           rdf:resource="http://purl.org/dc/dcmitype/StillImage" />
        <dc:title></dc:title>
      </cc:Work>
    </rdf:RDF>
  </metadata>
  <g
     inkscape:label="Layer 1"
     inkscape:groupmode="layer"
     id="layer1">
    <path
       style="fill:none;stroke:#000000;stroke-width:0.264583px;stroke-linecap:butt;stroke-linejoin:miter;stroke-opacity:1"
       d="m -50.754379,128.99284 c -8.82989,13.94438 -27.50467,17.5232 -50.066461,8.81159 -20.31758,-7.84507 -45.157,-28.42422 -41.0243,-43.580741 0.23443,-0.85977 0.33992,-1.72781 0.62868,-2.5326"
       id="path833-3"
       sodipodi:nodetypes="cssc" />
    <path
       style="fill:none;stroke:#000000;stroke-width:0.264583px;stroke-linecap:butt;stroke-linejoin:miter;stroke-opacity:1"
       d="m -141.21646,91.691089 c 3.67802,-11.509966 11.10032,-15.262961 18.12405,-15.939971 8.36266,-0.806064 17.48638,4.642772 25.115361,15.212391"
       id="path879"
       sodipodi:nodetypes="csc" />
    <path
       style="fill:none;stroke:#000000;stroke-width:0.264583px;stroke-linecap:butt;stroke-linejoin:miter;stroke-opacity:1"
       d="m -97.977049,90.963509 c 5.21962,6.143289 11.68687,11.001131 22.74067,11.133451"
       id="path885"
       sodipodi:nodetypes="cc" />
    <path
       style="fill:none;stroke:#000000;stroke-width:0.264583px;stroke-linecap:butt;stroke-linejoin:miter;stroke-opacity:1"
       d="m -75.236379,102.09696 c 13.36271,-0.77627 22.9275,1.40856 26.09249,8.58306 1.86632,4.23063 4.08831,10.15711 -1.61049,18.31282"
       id="path887"
       sodipodi:nodetypes="csc" />
    <path
       style="fill:none;stroke:#000000;stroke-width:0.264583px;stroke-linecap:butt;stroke-linejoin:miter;stroke-opacity:1"
       d="m -97.977049,90.963509 c 1.35886,14.771351 8.55524,19.164891 22.74067,11.133451"
       id="path907"
       sodipodi:nodetypes="cc" />
    <path
       style="fill:#65cb25;fill-opacity:1;stroke:#d40000;stroke-width:0.0300019"
       d="m -33.233488,251.50846 c -8.813998,-6.80791 -14.918872,-13.25072 -20.347464,-21.4738 -4.64414,-7.03481 -7.85784,-14.78195 -9.10464,-21.94818 -1.53399,-8.81692 0.0711,-16.50124 4.4825,-21.45935 3.89369,-4.37629 6.91821,-6.83757 10.004289,-8.14127 2.747228,-1.16055 6.427196,-1.53651 10.019857,-1.0237 3.089093,0.44093 3.790402,0.70096 7.201408,2.67013 3.09676,1.78777 3.115204,1.80088 4.352216,3.23406 4.043398,4.68241 6.422039,10.14795 7.699308,17.69115 0.529457,3.12683 0.513309,3.5864 -0.182222,5.18652 -1.107697,2.54834 -1.968069,6.23099 -2.009629,8.60185 -0.03066,1.74876 0.603035,3.97222 1.577973,5.53674 0.799735,1.28334 0.816007,1.29765 2.984786,2.62566 1.787182,1.0943 2.474335,1.42279 3.807311,1.82144 1.710211,0.51113 4.380361,0.90015 7.396515,1.07764 l 1.801621,0.10601 4.663687,2.86985 c 5.18973,3.19358 6.51538,4.23386 9.11057,7.14945 1.85162,2.08022 2.67282,3.54489 3.31704,5.91618 0.58639,2.15845 0.59696,4.27577 0.0339,6.7845 -0.2909,1.29598 -0.50499,1.75975 -2.02828,4.39371 l -1.70297,2.94484 -1.60945,1.39707 c -2.96457,2.5734 -5.3847,3.93613 -8.39391701,4.72647 -4.88184699,1.28218 -10.71447299,0.66084 -17.64596699,-1.87977 -1.925927,-0.70592 -3.012884,-1.25468 -7.519274,-3.79618 -4.79454,-2.70404 -5.505202,-3.1543 -7.909035,-5.01097 z"
       id="path913-7" />
    <path
       style="fill:#008000;fill-opacity:1;stroke:#d40000;stroke-width:0.0300019"
       d="m -17.859702,221.31694 c -1.206272,-1.19157 -1.830623,-2.34263 -2.233889,-4.11843 -0.657676,-2.89609 -0.166771,-5.99779 1.761864,-11.13211 l 0.266091,-0.70838 0.895146,3.12461 c 1.313919,4.5864 3.001403,7.859 5.644504,10.9466 1.422997,1.66232 3.65816,3.65297 5.507199,4.90474 l 1.452528,0.98335 -2.299773,-0.17146 c -5.143434,-0.38346 -8.79214,-1.65425 -10.99367,-3.82892 z"
       id="path915-5" />
    <path
       style="fill:#65cb25;fill-opacity:1;stroke:#d40000;stroke-width:0.0424291"
       d="m -84.809093,141.7627 c -12.939003,-1.80808 -26.504567,-7.92384 -39.021357,-17.59198 -3.84307,-2.96845 -10.65425,-9.84228 -12.88289,-13.0014 -4.7306,-6.70566 -6.13333,-12.021971 -4.66627,-17.685105 2.34804,-9.063945 7.81837,-15.137384 15.27738,-16.96171 2.57501,-0.629798 6.94851,-0.619849 9.22079,0.02098 5.75602,1.623301 11.71755,5.906833 16.50634,11.8603 l 2.107502,2.620065 0.32593,2.329852 c 0.8294,5.92882 3.165499,10.333028 6.315287,11.906108 3.647638,1.82172 8.043272,1.28724 14.260803,-1.73402 l 2.499027,-1.21434 4.583615,0.003 c 11.575203,0.008 17.880766,2.56394 20.75561,8.41453 3.253274,6.62073 2.775341,11.70725 -1.737255,18.48926 -5.702688,8.57062 -14.956771,13.0084 -26.956151,12.92679 -2.227117,-0.0152 -5.191879,-0.1872 -6.588361,-0.38234 z"
       id="path987" />
    <path
       style="fill:#008000;fill-opacity:1;stroke:#d40000;stroke-width:0.0424291"
       d="m -89.219041,105.59271 c -2.639375,-0.69588 -4.933365,-2.69171 -6.239549,-5.42858 -0.753925,-1.579703 -1.561166,-4.456637 -2.040374,-7.271708 l -0.176702,-1.038008 2.200896,2.186159 c 4.728348,4.696688 9.931228,7.228037 16.566385,8.060017 1.231059,0.15436 2.273491,0.31586 2.316515,0.35888 0.154514,0.15451 -4.113168,1.98255 -5.945434,2.54669 -2.036074,0.62689 -5.406535,0.92276 -6.681737,0.58655 z"
       id="path989" />
    <path
       style="fill:#65cb25;fill-opacity:1;stroke:#d40000;stroke-width:0.0424291"
       d="m 140.86252,210.76853 c -12.03015,-5.09533 -23.55061,-14.51373 -33.13859,-27.09201 -2.94383,-3.86197 -7.74385,-12.26444 -9.078917,-15.89274 -2.833856,-7.70153 -2.812822,-13.19974 0.06997,-18.29022 4.613958,-8.14737 11.469818,-12.59804 19.146828,-12.42967 2.65028,0.0581 6.87218,1.19967 8.90118,2.4068 5.13974,3.05776 9.78947,8.73829 12.87422,15.72832 l 1.35757,3.07626 -0.28819,2.33482 c -0.73336,5.94146 0.38325,10.80023 3.01857,13.13493 3.05185,2.70373 7.43604,3.32513 14.22367,2.01603 l 2.72817,-0.52616 4.42666,1.18922 c 11.17872,3.00361 16.6079,7.10446 17.87054,13.49976 1.42885,7.23715 -0.34929,12.02666 -6.46344,17.40963 -7.72661,6.80262 -17.81395,8.69405 -29.38334,5.50956 -2.1473,-0.59111 -4.96652,-1.52458 -6.26491,-2.07451 z"
       id="path987-5" />
    <path
       style="fill:#008000;fill-opacity:1;stroke:#d40000;stroke-width:0.0424291"
       d="m 146.51794,174.46178 c -2.36934,-1.35529 -4.0686,-3.87684 -4.62192,-6.85852 -0.31938,-1.72101 -0.35451,-4.70884 -0.0888,-7.55202 l 0.098,-1.04838 1.56008,2.68131 c 3.35165,5.76044 7.72208,9.55214 13.91581,12.07307 1.14916,0.46773 2.11427,0.89352 2.1447,0.94622 0.10926,0.18923 -4.48613,0.85042 -6.40197,0.92111 -2.12895,0.0786 -5.46115,-0.50799 -6.60588,-1.16279 z"
       id="path989-6" />
  </g>
</svg>
